<svg width="100%" height="100%" version="1.1" viewBox="0 0 57 57" xmlns="http://www.w3.org/2000/svg"><path fill="#000000" d="M2,2H3V3H2zM3,2H4V3H3zM4,2H5V3H4zM5,2H6V3H5zM6,2H7V3H6zM7,2H8V3H7zM8,2H9V3H8zM10,2H11V3H10zM11,2H12V3H11zM13,2H14V3H13zM16,2H17V3H16zM19,2H20V3H19zM20,2H21V3H20zM21,2H22V3H21zM23,2H24V3H23zM27,2H28V3H27zM30,2H31V3H30zM32,2H33V3H32zM34,2H35V3H34zM36,2H37V3H36zM37,2H38V3H37zM41,2H42V3H41zM44,2H45V3H44zM48,2H49V3H48zM49,2H50V3H49zM50,2H51V3H50zM51,2H52V3H51zM52,2H53V3H52zM53,2H54V3H53zM54,2H55V3H54zM2,3H3V4H2zM8,3H9V4H8zM10,3H11V4H10zM11,3H12V4H11zM12,3H13V4H12zM15,3H16V4H15zM16,3H17V4H16zM17,3H18V4H17zM18,3H19V4H18zM20,3H21V4H20zM21,3H22V4H21zM22,3H23V4H22zM24,3H25V4H24zM25,3H26V4H25zM29,3H30V4H29zM31,3H32V4H31zM34,3H35V4H34zM35,3H36V4H35zM37,3H38V4H37zM38,3H39V4H38zM39,3H40V4H39zM40,3H41V4H40zM43,3H44V4H43zM44,3H45V4H44zM45,3H46V4H45zM48,3H49V4H48zM54,3H55V4H54zM2,4H3V5H2zM4,4H5V5H4zM5,4H6V5H5zM6,4H7V5H6zM8,4H9V5H8zM10,4H11V5H10zM11,4H12V5H11zM14,4H15V5H14zM15,4H16V5H15zM16,4H17V5H16zM19,4H20V5H19zM20,4H21V5H20zM21,4H22V5H21zM25,4H26V5H25zM26,4H27V5H26zM27,4H28V5H27zM30,4H31V5H30zM31,4H32V5H31zM33,4H34V5H33zM35,4H36V5H35zM38,4H39V5H38zM42,4H43V5H42zM45,4H46V5H45zM48,4H49V5H48zM50,4H51V5H50zM51,4H52V5H51zM52,4H53V5H52zM54,4H55V5H54zM2,5H3V6H2zM4,5H5V6H4zM5,5H6V6H5zM6,5H7V6H6zM8,5H9V6H8zM12,5H13V6H12zM13,5H14V6H13zM14,5H15V6H14zM15,5H16V6H15zM16,5H17V6H16zM18,5H19V6H18zM20,5H21V6H20zM24,5H25V6H24zM26,5H27V6H26zM30,5H31V6H30zM31,5H32V6H31zM34,5H35V6H34zM36,5H37V6H36zM37,5H38V6H37zM41,5H42V6H41zM44,5H45V6H44zM46,5H47V6H46zM48,5H49V6H48zM50,5H51V6H50zM51,5H52V6H51zM52,5H53V6H52zM54,5H55V6H54zM2,6H3V7H2zM4,6H5V7H4zM5,6H6V7H5zM6,6H7V7H6zM8,6H9V7H8zM12,6H13V7H12zM15,6H16V7H15zM16,6H17V7H16zM17,6H18V7H17zM18,6H19V7H18zM20,6H21V7H20zM21,6H22V7H21zM26,6H27V7H26zM27,6H28V7H27zM28,6H29V7H28zM29,6H30V7H29zM30,6H31V7H30zM32,6H33V7H32zM34,6H35V7H34zM35,6H36V7H35zM36,6H37V7H36zM39,6H40V7H39zM42,6H43V7H42zM43,6H44V7H43zM44,6H45V7H44zM48,6H49V7H48zM50,6H51V7H50zM51,6H52V7H51zM52,6H53V7H52zM54,6H55V7H54zM2,7H3V8H2zM8,7H9V8H8zM10,7H11V8H10zM11,7H12V8H11zM13,7H14V8H13zM16,7H17V8H16zM19,7H20V8H19zM20,7H21V8H20zM21,7H22V8H21zM24,7H25V8H24zM25,7H26V8H25zM26,7H27V8H26zM30,7H31V8H30zM32,7H33V8H32zM33,7H34V8H33zM34,7H35V8H34zM36,7H37V8H36zM37,7H38V8H37zM39,7H40V8H39zM40,7H41V8H40zM41,7H42V8H41zM43,7H44V8H43zM44,7H45V8H44zM48,7H49V8H48zM54,7H55V8H54zM2,8H3V9H2zM3,8H4V9H3zM4,8H5V9H4zM5,8H6V9H5zM6,8H7V9H6zM7,8H8V9H7zM8,8H9V9H8zM10,8H11V9H10zM12,8H13V9H12zM14,8H15V9H14zM16,8H17V9H16zM18,8H19V9H18zM20,8H21V9H20zM22,8H23V9H22zM24,8H25V9H24zM26,8H27V9H26zM28,8H29V9H28zM30,8H31V9H30zM32,8H33V9H32zM34,8H35V9H34zM36,8H37V9H36zM38,8H39V9H38zM40,8H41V9H40zM42,8H43V9H42zM44,8H45V9H44zM46,8H47V9H46zM48,8H49V9H48zM49,8H50V9H49zM50,8H51V9H50zM51,8H52V9H51zM52,8H53V9H52zM53,8H54V9H53zM54,8H55V9H54zM10,9H11V10H10zM11,9H12V10H11zM13,9H14V10H13zM16,9H17V10H16zM18,9H19V10H18zM19,9H20V10H19zM20,9H21V10H20zM22,9H23V10H22zM24,9H25V10H24zM26,9H27V10H26zM30,9H31V10H30zM31,9H32V10H31zM33,9H34V10H33zM34,9H35V10H34zM36,9H37V10H36zM42,9H43V10H42zM43,9H44V10H43zM44,9H45V10H44zM46,9H47V10H46zM4,10H5V11H4zM5,10H6V11H5zM6,10H7V11H6zM8,10H9V11H8zM10,10H11V11H10zM11,10H12V11H11zM14,10H15V11H14zM16,10H17V11H16zM18,10H19V11H18zM19,10H20V11H19zM20,10H21V11H20zM22,10H23V11H22zM23,10H24V11H23zM24,10H25V11H24zM25,10H26V11H25zM26,10H27V11H26zM27,10H28V11H27zM28,10H29V11H28zM29,10H30V11H29zM30,10H31V11H30zM32,10H33V11H32zM34,10H35V11H34zM36,10H37V11H36zM37,10H38V11H37zM38,10H39V11H38zM40,10H41V11H40zM44,10H45V11H44zM45,10H46V11H45zM46,10H47V11H46zM47,10H48V11H47zM48,10H49V11H48zM49,10H50V11H49zM52,10H53V11H52zM53,10H54V11H53zM54,10H55V11H54zM4,11H5V12H4zM5,11H6V12H5zM10,11H11V12H10zM11,11H12V12H11zM12,11H13V12H12zM14,11H15V12H14zM16,11H17V12H16zM20,11H21V12H20zM21,11H22V12H21zM23,11H24V12H23zM24,11H25V12H24zM26,11H27V12H26zM27,11H28V12H27zM29,11H30V12H29zM30,11H31V12H30zM32,11H33V12H32zM34,11H35V12H34zM37,11H38V12H37zM42,11H43V12H42zM43,11H44V12H43zM44,11H45V12H44zM47,11H48V12H47zM49,11H50V12H49zM50,11H51V12H50zM51,11H52V12H51zM52,11H53V12H52zM54,11H55V12H54zM2,12H3V13H2zM4,12H5V13H4zM7,12H8V13H7zM8,12H9V13H8zM10,12H11V13H10zM11,12H12V13H11zM13,12H14V13H13zM15,12H16V13H15zM17,12H18V13H17zM20,12H21V13H20zM24,12H25V13H24zM27,12H28V13H27zM28,12H29V13H28zM29,12H30V13H29zM30,12H31V13H30zM37,12H38V13H37zM39,12H40V13H39zM40,12H41V13H40zM42,12H43V13H42zM45,12H46V13H45zM46,12H47V13H46zM48,12H49V13H48zM49,12H50V13H49zM50,12H51V13H50zM53,12H54V13H53zM2,13H3V14H2zM3,13H4V14H3zM4,13H5V14H4zM5,13H6V14H5zM7,13H8V14H7zM9,13H10V14H9zM10,13H11V14H10zM12,13H13V14H12zM20,13H21V14H20zM21,13H22V14H21zM22,13H23V14H22zM24,13H25V14H24zM26,13H27V14H26zM30,13H31V14H30zM33,13H34V14H33zM37,13H38V14H37zM41,13H42V14H41zM44,13H45V14H44zM47,13H48V14H47zM49,13H50V14H49zM51,13H52V14H51zM53,13H54V14H53zM54,13H55V14H54zM4,14H5V15H4zM6,14H7V15H6zM8,14H9V15H8zM9,14H10V15H9zM10,14H11V15H10zM12,14H13V15H12zM13,14H14V15H13zM14,14H15V15H14zM23,14H24V15H23zM24,14H25V15H24zM26,14H27V15H26zM27,14H28V15H27zM30,14H31V15H30zM32,14H33V15H32zM34,14H35V15H34zM35,14H36V15H35zM36,14H37V15H36zM38,14H39V15H38zM40,14H41V15H40zM42,14H43V15H42zM44,14H45V15H44zM46,14H47V15H46zM47,14H48V15H47zM49,14H50V15H49zM50,14H51V15H50zM52,14H53V15H52zM53,14H54V15H53zM3,15H4V16H3zM4,15H5V16H4zM7,15H8V16H7zM10,15H11V16H10zM12,15H13V16H12zM13,15H14V16H13zM16,15H17V16H16zM17,15H18V16H17zM18,15H19V16H18zM20,15H21V16H20zM23,15H24V16H23zM25,15H26V16H25zM27,15H28V16H27zM29,15H30V16H29zM31,15H32V16H31zM33,15H34V16H33zM35,15H36V16H35zM36,15H37V16H36zM39,15H40V16H39zM41,15H42V16H41zM42,15H43V16H42zM43,15H44V16H43zM44,15H45V16H44zM53,15H54V16H53zM54,15H55V16H54zM5,16H6V17H5zM8,16H9V17H8zM10,16H11V17H10zM11,16H12V17H11zM12,16H13V17H12zM13,16H14V17H13zM14,16H15V17H14zM16,16H17V17H16zM18,16H19V17H18zM21,16H22V17H21zM24,16H25V17H24zM25,16H26V17H25zM26,16H27V17H26zM27,16H28V17H27zM28,16H29V17H28zM29,16H30V17H29zM31,16H32V17H31zM32,16H33V17H32zM33,16H34V17H33zM35,16H36V17H35zM36,16H37V17H36zM38,16H39V17H38zM40,16H41V17H40zM42,16H43V17H42zM43,16H44V17H43zM46,16H47V17H46zM48,16H49V17H48zM50,16H51V17H50zM52,16H53V17H52zM2,17H3V18H2zM3,17H4V18H3zM4,17H5V18H4zM5,17H6V18H5zM6,17H7V18H6zM10,17H11V18H10zM11,17H12V18H11zM14,17H15V18H14zM15,17H16V18H15zM18,17H19V18H18zM19,17H20V18H19zM20,17H21V18H20zM21,17H22V18H21zM22,17H23V18H22zM24,17H25V18H24zM25,17H26V18H25zM27,17H28V18H27zM28,17H29V18H28zM34,17H35V18H34zM36,17H37V18H36zM41,17H42V18H41zM42,17H43V18H42zM43,17H44V18H43zM44,17H45V18H44zM45,17H46V18H45zM46,17H47V18H46zM49,17H50V18H49zM51,17H52V18H51zM2,18H3V19H2zM4,18H5V19H4zM6,18H7V19H6zM8,18H9V19H8zM10,18H11V19H10zM11,18H12V19H11zM12,18H13V19H12zM14,18H15V19H14zM17,18H18V19H17zM18,18H19V19H18zM21,18H22V19H21zM22,18H23V19H22zM24,18H25V19H24zM30,18H31V19H30zM33,18H34V19H33zM35,18H36V19H35zM38,18H39V19H38zM39,18H40V19H39zM47,18H48V19H47zM50,18H51V19H50zM54,18H55V19H54zM2,19H3V20H2zM3,19H4V20H3zM6,19H7V20H6zM7,19H8V20H7zM10,19H11V20H10zM14,19H15V20H14zM16,19H17V20H16zM17,19H18V20H17zM18,19H19V20H18zM21,19H22V20H21zM22,19H23V20H22zM23,19H24V20H23zM24,19H25V20H24zM25,19H26V20H25zM27,19H28V20H27zM28,19H29V20H28zM29,19H30V20H29zM31,19H32V20H31zM33,19H34V20H33zM34,19H35V20H34zM35,19H36V20H35zM36,19H37V20H36zM38,19H39V20H38zM39,19H40V20H39zM42,19H43V20H42zM43,19H44V20H43zM44,19H45V20H44zM45,19H46V20H45zM49,19H50V20H49zM50,19H51V20H50zM53,19H54V20H53zM54,19H55V20H54zM3,20H4V21H3zM4,20H5V21H4zM5,20H6V21H5zM8,20H9V21H8zM10,20H11V21H10zM14,20H15V21H14zM18,20H19V21H18zM21,20H22V21H21zM22,20H23V21H22zM23,20H24V21H23zM27,20H28V21H27zM31,20H32V21H31zM33,20H34V21H33zM34,20H35V21H34zM35,20H36V21H35zM36,20H37V21H36zM37,20H38V21H37zM39,20H40V21H39zM40,20H41V21H40zM48,20H49V21H48zM49,20H50V21H49zM50,20H51V21H50zM52,20H53V21H52zM2,21H3V22H2zM3,21H4V22H3zM4,21H5V22H4zM9,21H10V22H9zM10,21H11V22H10zM11,21H12V22H11zM12,21H13V22H12zM13,21H14V22H13zM14,21H15V22H14zM16,21H17V22H16zM17,21H18V22H17zM24,21H25V22H24zM25,21H26V22H25zM26,21H27V22H26zM28,21H29V22H28zM30,21H31V22H30zM31,21H32V22H31zM33,21H34V22H33zM34,21H35V22H34zM35,21H36V22H35zM37,21H38V22H37zM38,21H39V22H38zM42,21H43V22H42zM44,21H45V22H44zM49,21H50V22H49zM5,22H6V23H5zM7,22H8V23H7zM8,22H9V23H8zM9,22H10V23H9zM10,22H11V23H10zM11,22H12V23H11zM12,22H13V23H12zM14,22H15V23H14zM15,22H16V23H15zM16,22H17V23H16zM21,22H22V23H21zM22,22H23V23H22zM25,22H26V23H25zM28,22H29V23H28zM30,22H31V23H30zM32,22H33V23H32zM33,22H34V23H33zM34,22H35V23H34zM36,22H37V23H36zM38,22H39V23H38zM39,22H40V23H39zM43,22H44V23H43zM46,22H47V23H46zM50,22H51V23H50zM51,22H52V23H51zM52,22H53V23H52zM54,22H55V23H54zM2,23H3V24H2zM3,23H4V24H3zM6,23H7V24H6zM7,23H8V24H7zM9,23H10V24H9zM11,23H12V24H11zM12,23H13V24H12zM14,23H15V24H14zM16,23H17V24H16zM18,23H19V24H18zM20,23H21V24H20zM21,23H22V24H21zM26,23H27V24H26zM27,23H28V24H27zM28,23H29V24H28zM30,23H31V24H30zM31,23H32V24H31zM32,23H33V24H32zM33,23H34V24H33zM34,23H35V24H34zM35,23H36V24H35zM37,23H38V24H37zM38,23H39V24H38zM43,23H44V24H43zM44,23H45V24H44zM45,23H46V24H45zM47,23H48V24H47zM49,23H50V24H49zM50,23H51V24H50zM51,23H52V24H51zM53,23H54V24H53zM54,23H55V24H54zM2,24H3V25H2zM3,24H4V25H3zM5,24H6V25H5zM6,24H7V25H6zM8,24H9V25H8zM10,24H11V25H10zM16,24H17V25H16zM17,24H18V25H17zM23,24H24V25H23zM24,24H25V25H24zM26,24H27V25H26zM27,24H28V25H27zM28,24H29V25H28zM29,24H30V25H29zM33,24H34V25H33zM34,24H35V25H34zM38,24H39V25H38zM39,24H40V25H39zM45,24H46V25H45zM46,24H47V25H46zM48,24H49V25H48zM49,24H50V25H49zM50,24H51V25H50zM53,24H54V25H53zM4,25H5V26H4zM6,25H7V26H6zM9,25H10V26H9zM11,25H12V26H11zM12,25H13V26H12zM19,25H20V26H19zM24,25H25V26H24zM26,25H27V26H26zM27,25H28V26H27zM28,25H29V26H28zM30,25H31V26H30zM31,25H32V26H31zM32,25H33V26H32zM33,25H34V26H33zM34,25H35V26H34zM36,25H37V26H36zM39,25H40V26H39zM42,25H43V26H42zM43,25H44V26H43zM45,25H46V26H45zM46,25H47V26H46zM49,25H50V26H49zM51,25H52V26H51zM53,25H54V26H53zM54,25H55V26H54zM2,26H3V27H2zM3,26H4V27H3zM4,26H5V27H4zM6,26H7V27H6zM7,26H8V27H7zM8,26H9V27H8zM9,26H10V27H9zM10,26H11V27H10zM14,26H15V27H14zM15,26H16V27H15zM17,26H18V27H17zM18,26H19V27H18zM19,26H20V27H19zM20,26H21V27H20zM22,26H23V27H22zM23,26H24V27H23zM26,26H27V27H26zM27,26H28V27H27zM28,26H29V27H28zM29,26H30V27H29zM30,26H31V27H30zM31,26H32V27H31zM32,26H33V27H32zM34,26H35V27H34zM36,26H37V27H36zM37,26H38V27H37zM38,26H39V27H38zM39,26H40V27H39zM40,26H41V27H40zM41,26H42V27H41zM43,26H44V27H43zM44,26H45V27H44zM45,26H46V27H45zM46,26H47V27H46zM47,26H48V27H47zM48,26H49V27H48zM49,26H50V27H49zM50,26H51V27H50zM52,26H53V27H52zM54,26H55V27H54zM3,27H4V28H3zM4,27H5V28H4zM5,27H6V28H5zM6,27H7V28H6zM10,27H11V28H10zM13,27H14V28H13zM16,27H17V28H16zM18,27H19V28H18zM20,27H21V28H20zM21,27H22V28H21zM26,27H27V28H26zM30,27H31V28H30zM33,27H34V28H33zM34,27H35V28H34zM36,27H37V28H36zM38,27H39V28H38zM39,27H40V28H39zM43,27H44V28H43zM44,27H45V28H44zM45,27H46V28H45zM46,27H47V28H46zM50,27H51V28H50zM51,27H52V28H51zM53,27H54V28H53zM54,27H55V28H54zM2,28H3V29H2zM3,28H4V29H3zM4,28H5V29H4zM5,28H6V29H5zM6,28H7V29H6zM8,28H9V29H8zM10,28H11V29H10zM12,28H13V29H12zM15,28H16V29H15zM16,28H17V29H16zM19,28H20V29H19zM20,28H21V29H20zM23,28H24V29H23zM26,28H27V29H26zM28,28H29V29H28zM30,28H31V29H30zM32,28H33V29H32zM34,28H35V29H34zM36,28H37V29H36zM37,28H38V29H37zM40,28H41V29H40zM45,28H46V29H45zM46,28H47V29H46zM48,28H49V29H48zM50,28H51V29H50zM51,28H52V29H51zM2,29H3V30H2zM6,29H7V30H6zM10,29H11V30H10zM12,29H13V30H12zM13,29H14V30H13zM17,29H18V30H17zM19,29H20V30H19zM20,29H21V30H20zM23,29H24V30H23zM25,29H26V30H25zM26,29H27V30H26zM30,29H31V30H30zM34,29H35V30H34zM35,29H36V30H35zM37,29H38V30H37zM39,29H40V30H39zM42,29H43V30H42zM43,29H44V30H43zM46,29H47V30H46zM50,29H51V30H50zM53,29H54V30H53zM5,30H6V31H5zM6,30H7V31H6zM7,30H8V31H7zM8,30H9V31H8zM9,30H10V31H9zM10,30H11V31H10zM12,30H13V31H12zM13,30H14V31H13zM14,30H15V31H14zM15,30H16V31H15zM16,30H17V31H16zM18,30H19V31H18zM19,30H20V31H19zM20,30H21V31H20zM21,30H22V31H21zM23,30H24V31H23zM25,30H26V31H25zM26,30H27V31H26zM27,30H28V31H27zM28,30H29V31H28zM29,30H30V31H29zM30,30H31V31H30zM34,30H35V31H34zM36,30H37V31H36zM38,30H39V31H38zM40,30H41V31H40zM46,30H47V31H46zM47,30H48V31H47zM48,30H49V31H48zM49,30H50V31H49zM50,30H51V31H50zM51,30H52V31H51zM52,30H53V31H52zM53,30H54V31H53zM4,31H5V32H4zM10,31H11V32H10zM12,31H13V32H12zM14,31H15V32H14zM15,31H16V32H15zM16,31H17V32H16zM17,31H18V32H17zM18,31H19V32H18zM20,31H21V32H20zM21,31H22V32H21zM24,31H25V32H24zM28,31H29V32H28zM29,31H30V32H29zM30,31H31V32H30zM31,31H32V32H31zM33,31H34V32H33zM35,31H36V32H35zM36,31H37V32H36zM37,31H38V32H37zM38,31H39V32H38zM42,31H43V32H42zM44,31H45V32H44zM47,31H48V32H47zM48,31H49V32H48zM50,31H51V32H50zM52,31H53V32H52zM54,31H55V32H54zM3,32H4V33H3zM6,32H7V33H6zM8,32H9V33H8zM9,32H10V33H9zM10,32H11V33H10zM12,32H13V33H12zM13,32H14V33H13zM15,32H16V33H15zM16,32H17V33H16zM17,32H18V33H17zM18,32H19V33H18zM20,32H21V33H20zM21,32H22V33H21zM23,32H24V33H23zM27,32H28V33H27zM29,32H30V33H29zM34,32H35V33H34zM36,32H37V33H36zM37,32H38V33H37zM38,32H39V33H38zM39,32H40V33H39zM40,32H41V33H40zM42,32H43V33H42zM46,32H47V33H46zM47,32H48V33H47zM49,32H50V33H49zM53,32H54V33H53zM4,33H5V34H4zM6,33H7V34H6zM7,33H8V34H7zM10,33H11V34H10zM14,33H15V34H14zM16,33H17V34H16zM18,33H19V34H18zM19,33H20V34H19zM20,33H21V34H20zM25,33H26V34H25zM26,33H27V34H26zM27,33H28V34H27zM28,33H29V34H28zM29,33H30V34H29zM31,33H32V34H31zM36,33H37V34H36zM39,33H40V34H39zM40,33H41V34H40zM42,33H43V34H42zM46,33H47V34H46zM48,33H49V34H48zM49,33H50V34H49zM50,33H51V34H50zM51,33H52V34H51zM2,34H3V35H2zM3,34H4V35H3zM5,34H6V35H5zM8,34H9V35H8zM11,34H12V35H11zM13,34H14V35H13zM14,34H15V35H14zM16,34H17V35H16zM17,34H18V35H17zM19,34H20V35H19zM23,34H24V35H23zM24,34H25V35H24zM27,34H28V35H27zM28,34H29V35H28zM32,34H33V35H32zM33,34H34V35H33zM34,34H35V35H34zM35,34H36V35H35zM36,34H37V35H36zM37,34H38V35H37zM38,34H39V35H38zM39,34H40V35H39zM47,34H48V35H47zM49,34H50V35H49zM51,34H52V35H51zM52,34H53V35H52zM5,35H6V36H5zM6,35H7V36H6zM7,35H8V36H7zM11,35H12V36H11zM12,35H13V36H12zM13,35H14V36H13zM16,35H17V36H16zM18,35H19V36H18zM19,35H20V36H19zM20,35H21V36H20zM21,35H22V36H21zM22,35H23V36H22zM23,35H24V36H23zM26,35H27V36H26zM27,35H28V36H27zM30,35H31V36H30zM31,35H32V36H31zM32,35H33V36H32zM35,35H36V36H35zM36,35H37V36H36zM37,35H38V36H37zM38,35H39V36H38zM39,35H40V36H39zM41,35H42V36H41zM44,35H45V36H44zM47,35H48V36H47zM48,35H49V36H48zM50,35H51V36H50zM51,35H52V36H51zM54,35H55V36H54zM3,36H4V37H3zM6,36H7V37H6zM8,36H9V37H8zM9,36H10V37H9zM10,36H11V37H10zM13,36H14V37H13zM14,36H15V37H14zM17,36H18V37H17zM19,36H20V37H19zM22,36H23V37H22zM24,36H25V37H24zM28,36H29V37H28zM32,36H33V37H32zM33,36H34V37H33zM34,36H35V37H34zM36,36H37V37H36zM37,36H38V37H37zM38,36H39V37H38zM41,36H42V37H41zM42,36H43V37H42zM46,36H47V37H46zM47,36H48V37H47zM49,36H50V37H49zM51,36H52V37H51zM53,36H54V37H53zM4,37H5V38H4zM5,37H6V38H5zM6,37H7V38H6zM7,37H8V38H7zM11,37H12V38H11zM12,37H13V38H12zM16,37H17V38H16zM17,37H18V38H17zM20,37H21V38H20zM21,37H22V38H21zM22,37H23V38H22zM23,37H24V38H23zM35,37H36V38H35zM39,37H40V38H39zM42,37H43V38H42zM44,37H45V38H44zM45,37H46V38H45zM46,37H47V38H46zM48,37H49V38H48zM49,37H50V38H49zM3,38H4V39H3zM4,38H5V39H4zM5,38H6V39H5zM7,38H8V39H7zM8,38H9V39H8zM13,38H14V39H13zM14,38H15V39H14zM15,38H16V39H15zM17,38H18V39H17zM18,38H19V39H18zM19,38H20V39H19zM20,38H21V39H20zM22,38H23V39H22zM24,38H25V39H24zM25,38H26V39H25zM29,38H30V39H29zM30,38H31V39H30zM31,38H32V39H31zM32,38H33V39H32zM33,38H34V39H33zM35,38H36V39H35zM36,38H37V39H36zM38,38H39V39H38zM39,38H40V39H39zM41,38H42V39H41zM43,38H44V39H43zM44,38H45V39H44zM46,38H47V39H46zM47,38H48V39H47zM49,38H50V39H49zM52,38H53V39H52zM2,39H3V40H2zM5,39H6V40H5zM6,39H7V40H6zM11,39H12V40H11zM13,39H14V40H13zM15,39H16V40H15zM20,39H21V40H20zM21,39H22V40H21zM22,39H23V40H22zM23,39H24V40H23zM26,39H27V40H26zM28,39H29V40H28zM29,39H30V40H29zM32,39H33V40H32zM33,39H34V40H33zM34,39H35V40H34zM35,39H36V40H35zM36,39H37V40H36zM38,39H39V40H38zM39,39H40V40H39zM44,39H45V40H44zM45,39H46V40H45zM46,39H47V40H46zM47,39H48V40H47zM48,39H49V40H48zM49,39H50V40H49zM50,39H51V40H50zM51,39H52V40H51zM53,39H54V40H53zM54,39H55V40H54zM4,40H5V41H4zM7,40H8V41H7zM8,40H9V41H8zM13,40H14V41H13zM15,40H16V41H15zM21,40H22V41H21zM24,40H25V41H24zM25,40H26V41H25zM27,40H28V41H27zM29,40H30V41H29zM30,40H31V41H30zM32,40H33V41H32zM34,40H35V41H34zM37,40H38V41H37zM40,40H41V41H40zM41,40H42V41H41zM43,40H44V41H43zM45,40H46V41H45zM46,40H47V41H46zM47,40H48V41H47zM50,40H51V41H50zM2,41H3V42H2zM3,41H4V42H3zM4,41H5V42H4zM5,41H6V42H5zM6,41H7V42H6zM7,41H8V42H7zM10,41H11V42H10zM13,41H14V42H13zM14,41H15V42H14zM15,41H16V42H15zM17,41H18V42H17zM20,41H21V42H20zM26,41H27V42H26zM27,41H28V42H27zM28,41H29V42H28zM29,41H30V42H29zM30,41H31V42H30zM31,41H32V42H31zM34,41H35V42H34zM35,41H36V42H35zM41,41H42V42H41zM42,41H43V42H42zM43,41H44V42H43zM44,41H45V42H44zM45,41H46V42H45zM48,41H49V42H48zM49,41H50V42H49zM50,41H51V42H50zM54,41H55V42H54zM4,42H5V43H4zM5,42H6V43H5zM7,42H8V43H7zM8,42H9V43H8zM11,42H12V43H11zM12,42H13V43H12zM14,42H15V43H14zM15,42H16V43H15zM19,42H20V43H19zM21,42H22V43H21zM22,42H23V43H22zM24,42H25V43H24zM25,42H26V43H25zM27,42H28V43H27zM29,42H30V43H29zM30,42H31V43H30zM37,42H38V43H37zM38,42H39V43H38zM41,42H42V43H41zM43,42H44V43H43zM44,42H45V43H44zM47,42H48V43H47zM49,42H50V43H49zM51,42H52V43H51zM52,42H53V43H52zM54,42H55V43H54zM3,43H4V44H3zM7,43H8V44H7zM9,43H10V44H9zM10,43H11V44H10zM11,43H12V44H11zM12,43H13V44H12zM14,43H15V44H14zM15,43H16V44H15zM17,43H18V44H17zM20,43H21V44H20zM22,43H23V44H22zM23,43H24V44H23zM24,43H25V44H24zM25,43H26V44H25zM26,43H27V44H26zM27,43H28V44H27zM29,43H30V44H29zM31,43H32V44H31zM32,43H33V44H32zM34,43H35V44H34zM35,43H36V44H35zM36,43H37V44H36zM38,43H39V44H38zM39,43H40V44H39zM42,43H43V44H42zM43,43H44V44H43zM44,43H45V44H44zM46,43H47V44H46zM47,43H48V44H47zM48,43H49V44H48zM50,43H51V44H50zM54,43H55V44H54zM2,44H3V45H2zM3,44H4V45H3zM5,44H6V45H5zM6,44H7V45H6zM7,44H8V45H7zM8,44H9V45H8zM11,44H12V45H11zM12,44H13V45H12zM18,44H19V45H18zM21,44H22V45H21zM22,44H23V45H22zM23,44H24V45H23zM30,44H31V45H30zM31,44H32V45H31zM33,44H34V45H33zM34,44H35V45H34zM35,44H36V45H35zM40,44H41V45H40zM42,44H43V45H42zM43,44H44V45H43zM46,44H47V45H46zM51,44H52V45H51zM53,44H54V45H53zM3,45H4V46H3zM4,45H5V46H4zM9,45H10V46H9zM10,45H11V46H10zM11,45H12V46H11zM13,45H14V46H13zM15,45H16V46H15zM16,45H17V46H16zM17,45H18V46H17zM20,45H21V46H20zM22,45H23V46H22zM23,45H24V46H23zM24,45H25V46H24zM27,45H28V46H27zM28,45H29V46H28zM29,45H30V46H29zM31,45H32V46H31zM32,45H33V46H32zM33,45H34V46H33zM34,45H35V46H34zM37,45H38V46H37zM39,45H40V46H39zM41,45H42V46H41zM44,45H45V46H44zM45,45H46V46H45zM46,45H47V46H46zM47,45H48V46H47zM48,45H49V46H48zM50,45H51V46H50zM53,45H54V46H53zM5,46H6V47H5zM8,46H9V47H8zM9,46H10V47H9zM12,46H13V47H12zM15,46H16V47H15zM21,46H22V47H21zM22,46H23V47H22zM24,46H25V47H24zM26,46H27V47H26zM27,46H28V47H27zM28,46H29V47H28zM29,46H30V47H29zM30,46H31V47H30zM34,46H35V47H34zM36,46H37V47H36zM38,46H39V47H38zM39,46H40V47H39zM41,46H42V47H41zM46,46H47V47H46zM47,46H48V47H47zM48,46H49V47H48zM49,46H50V47H49zM50,46H51V47H50zM52,46H53V47H52zM53,46H54V47H53zM10,47H11V48H10zM13,47H14V48H13zM14,47H15V48H14zM18,47H19V48H18zM20,47H21V48H20zM22,47H23V48H22zM24,47H25V48H24zM25,47H26V48H25zM26,47H27V48H26zM30,47H31V48H30zM32,47H33V48H32zM34,47H35V48H34zM35,47H36V48H35zM37,47H38V48H37zM38,47H39V48H38zM41,47H42V48H41zM42,47H43V48H42zM43,47H44V48H43zM44,47H45V48H44zM46,47H47V48H46zM50,47H51V48H50zM53,47H54V48H53zM54,47H55V48H54zM2,48H3V49H2zM3,48H4V49H3zM4,48H5V49H4zM5,48H6V49H5zM6,48H7V49H6zM7,48H8V49H7zM8,48H9V49H8zM12,48H13V49H12zM16,48H17V49H16zM20,48H21V49H20zM21,48H22V49H21zM23,48H24V49H23zM24,48H25V49H24zM25,48H26V49H25zM26,48H27V49H26zM28,48H29V49H28zM30,48H31V49H30zM40,48H41V49H40zM42,48H43V49H42zM46,48H47V49H46zM48,48H49V49H48zM50,48H51V49H50zM51,48H52V49H51zM52,48H53V49H52zM2,49H3V50H2zM8,49H9V50H8zM13,49H14V50H13zM16,49H17V50H16zM18,49H19V50H18zM20,49H21V50H20zM21,49H22V50H21zM26,49H27V50H26zM30,49H31V50H30zM34,49H35V50H34zM35,49H36V50H35zM39,49H40V50H39zM41,49H42V50H41zM42,49H43V50H42zM46,49H47V50H46zM50,49H51V50H50zM53,49H54V50H53zM54,49H55V50H54zM2,50H3V51H2zM4,50H5V51H4zM5,50H6V51H5zM6,50H7V51H6zM8,50H9V51H8zM10,50H11V51H10zM11,50H12V51H11zM12,50H13V51H12zM13,50H14V51H13zM15,50H16V51H15zM16,50H17V51H16zM17,50H18V51H17zM23,50H24V51H23zM24,50H25V51H24zM25,50H26V51H25zM26,50H27V51H26zM27,50H28V51H27zM28,50H29V51H28zM29,50H30V51H29zM30,50H31V51H30zM31,50H32V51H31zM32,50H33V51H32zM33,50H34V51H33zM34,50H35V51H34zM35,50H36V51H35zM36,50H37V51H36zM38,50H39V51H38zM43,50H44V51H43zM44,50H45V51H44zM46,50H47V51H46zM47,50H48V51H47zM48,50H49V51H48zM49,50H50V51H49zM50,50H51V51H50zM52,50H53V51H52zM54,50H55V51H54zM2,51H3V52H2zM4,51H5V52H4zM5,51H6V52H5zM6,51H7V52H6zM8,51H9V52H8zM10,51H11V52H10zM12,51H13V52H12zM13,51H14V52H13zM14,51H15V52H14zM16,51H17V52H16zM18,51H19V52H18zM19,51H20V52H19zM20,51H21V52H20zM22,51H23V52H22zM24,51H25V52H24zM31,51H32V52H31zM33,51H34V52H33zM36,51H37V52H36zM37,51H38V52H37zM38,51H39V52H38zM39,51H40V52H39zM44,51H45V52H44zM46,51H47V52H46zM47,51H48V52H47zM2,52H3V53H2zM4,52H5V53H4zM5,52H6V53H5zM6,52H7V53H6zM8,52H9V53H8zM10,52H11V53H10zM12,52H13V53H12zM14,52H15V53H14zM15,52H16V53H15zM20,52H21V53H20zM21,52H22V53H21zM22,52H23V53H22zM24,52H25V53H24zM25,52H26V53H25zM26,52H27V53H26zM31,52H32V53H31zM34,52H35V53H34zM35,52H36V53H35zM38,52H39V53H38zM40,52H41V53H40zM47,52H48V53H47zM48,52H49V53H48zM50,52H51V53H50zM2,53H3V54H2zM8,53H9V54H8zM11,53H12V54H11zM13,53H14V54H13zM14,53H15V54H14zM15,53H16V54H15zM19,53H20V54H19zM21,53H22V54H21zM24,53H25V54H24zM25,53H26V54H25zM29,53H30V54H29zM31,53H32V54H31zM35,53H36V54H35zM38,53H39V54H38zM39,53H40V54H39zM40,53H41V54H40zM42,53H43V54H42zM45,53H46V54H45zM47,53H48V54H47zM49,53H50V54H49zM50,53H51V54H50zM51,53H52V54H51zM53,53H54V54H53zM2,54H3V55H2zM3,54H4V55H3zM4,54H5V55H4zM5,54H6V55H5zM6,54H7V55H6zM7,54H8V55H7zM8,54H9V55H8zM11,54H12V55H11zM13,54H14V55H13zM15,54H16V55H15zM16,54H17V55H16zM17,54H18V55H17zM19,54H20V55H19zM21,54H22V55H21zM23,54H24V55H23zM24,54H25V55H24zM28,54H29V55H28zM29,54H30V55H29zM30,54H31V55H30zM31,54H32V55H31zM32,54H33V55H32zM33,54H34V55H33zM34,54H35V55H34zM36,54H37V55H36zM37,54H38V55H37zM40,54H41V55H40zM44,54H45V55H44zM46,54H47V55H46zM48,54H49V55H48zM49,54H50V55H49zM50,54H51V55H50zM52,54H53V55H52z" id="qr-path" fill="#000000" fill-opacity="1" fill-rule="nonzero" stroke="none" /></svg>